<svg width="60" height="60" viewBox="0 0 60 60" fill="none" xmlns="http://www.w3.org/2000/svg">
<rect x="22.5654" y="31.9565" width="3.91304" height="37.4348" rx="1.95652" transform="rotate(-90 22.5654 31.9565)" fill="#000"/>
<rect x="26.0874" y="0.521729" width="3.91304" height="59.087" rx="1.95652" fill="#000"/>
<rect x="32.3481" width="3.91304" height="60" rx="1.95652" fill="#000"/>
<path d="M49.6222 10.3778C50.5009 9.4991 51.9327 9.49389 52.7431 10.4359C54.8162 12.8459 56.4962 15.5738 57.7164 18.5195C59.224 22.1593 60 26.0603 60 30C60 33.9397 59.224 37.8407 57.7164 41.4805C56.4962 44.4262 54.8162 47.1541 52.7431 49.5641C51.9327 50.5061 50.5009 50.5009 49.6222 49.6222V49.6222C48.7435 48.7435 48.7522 47.3248 49.55 46.3721C51.212 44.3876 52.565 42.158 53.5589 39.7584C54.8404 36.6646 55.5 33.3487 55.5 30C55.5 26.6513 54.8404 23.3354 53.5589 20.2416C52.565 17.842 51.212 15.6124 49.55 13.6279C48.7522 12.6752 48.7435 11.2565 49.6222 10.3778V10.3778Z" fill="#000"/>
<path d="M30 57.75C30 58.9926 28.9911 60.0088 27.752 59.9157C21.7289 59.4632 15.963 57.2005 11.2248 53.3986C6.48669 49.5967 3.02854 44.4579 1.28188 38.6759C0.922536 37.4864 1.69596 36.2813 2.90909 36.0121V36.0121C4.12222 35.7429 5.31426 36.5122 5.68932 37.6969C7.20364 42.4801 10.102 46.728 14.0411 49.8888C17.9803 53.0496 22.7551 54.9588 27.7528 55.4008C28.9906 55.5103 30 56.5074 30 57.75V57.75Z" fill="#000"/>
<path d="M30 2.25C30 1.00736 28.9911 -0.00878103 27.752 0.0843162C22.6009 0.471314 17.6358 2.18245 13.34 5.05113C12.3066 5.74122 12.138 7.16318 12.9035 8.14198V8.14198C13.6691 9.12078 15.0784 9.28426 16.1209 8.60791C19.6125 6.34247 23.6068 4.96592 27.7528 4.59918C28.9906 4.48969 30 3.49264 30 2.25V2.25Z" fill="#000"/>
</svg>
